<svg xmlns="http://www.w3.org/2000/svg" xmlns:xlink="http://www.w3.org/1999/xlink" width="465" height="162" viewBox="0 0 465 162"><path fill="#B11216" d="M65.2485 7.1093C78.2657 12.4823 96.6451 13.8373 110.02 9.34417C111.641 10.742 114.498 14.6214 115.727 16.4417C104.155 33.0261 106.123 49.4964 114.527 66.857C115.689 69.0295 116.921 71.2579 117.959 73.4844C114.15 73.0867 104.97 73.3446 100.641 73.3603L65.3548 73.5355C65.6912 64.8643 65.5532 55.7415 65.5284 47.0308C65.5052 33.7232 65.4119 20.4159 65.2485 7.1093Z"></path><path fill="#292A84" d="M63.003 7.03234C63.4979 7.71626 63.3472 22.7413 63.3518 24.7067L63.5048 60.9947C63.5358 64.0597 63.3735 70.9093 63.8451 73.6568C58.9887 73.4378 52.2159 73.6492 47.2164 73.6494L11.2496 73.6318C12.1733 71.7285 13.2848 69.6928 14.2686 67.8019C16.319 64.0882 19.1149 56.5191 19.98 52.5003C23.1196 37.9138 20.7122 28.8446 13.113 16.5904C14.6191 14.5231 16.7762 11.5421 18.5623 9.81756C21.2525 10.1104 25.0709 11.2751 28.3934 11.6499C39.8947 12.9471 52.4782 12.0902 63.003 7.03234Z"></path><path fill="#F15625" d="M10.5216 74.4747C10.7041 74.7486 11.2726 75.6231 11.6621 75.6257C23.9081 75.7102 36.1807 75.5466 48.4317 75.5208C53.4752 75.5102 58.5955 75.6006 63.625 75.4024C63.9012 88.4349 63.7338 101.856 63.773 114.923L63.791 132.289C63.8007 133.844 64.1029 141.166 63.6258 141.88C62.2196 141.335 56.6739 138.182 55.0853 137.301C50.6653 134.851 46.0061 132.475 41.6428 129.984C28.7344 122.614 14.36 114.343 10.2809 98.9231C8.57989 92.493 8.79786 85.3634 9.56537 78.8011C9.70619 77.5971 9.93359 75.4958 10.5216 74.4747Z"></path><path fill="#008241" d="M118.546 74.5932L118.788 74.6952C119.308 75.7243 119.336 77.9791 119.519 79.1984C123.314 104.596 111.312 116.297 90.3263 128.34C85.6647 131.02 80.9731 133.648 76.2523 136.222C73.7743 137.572 68.6554 140.089 66.595 141.506L66.1587 141.55C65.5483 140.351 65.6382 82.4051 65.5154 75.6114C68.6587 75.3349 76.3742 75.5205 79.7508 75.5122L109.98 75.5024C111.794 75.4998 117.411 75.7318 118.546 74.5932Z"></path><path fill="#232021" d="M290.393 35.2652C295.186 34.3191 300.117 36.0203 303.307 39.7202C306.497 43.42 307.454 48.5482 305.813 53.1494C304.172 57.7506 300.185 61.1156 295.374 61.9615C288.042 63.2504 281.039 58.396 279.674 51.0779C278.309 43.7599 283.09 36.7068 290.393 35.2652ZM295.736 59.9874C298.153 58.7166 299.788 57.297 300.488 54.5437C302.336 47.2841 300.157 36.1312 290.584 37.275C288.602 37.9816 286.751 39.1884 286.012 41.2343C283.255 48.8611 285.383 61.2874 295.736 59.9874Z"></path><path fill="#232021" d="M189.735 35.2962C193.472 35.1434 195.949 35.0876 199.033 37.6823C201.122 39.441 203.664 45.1976 201.58 47.4559C199.446 48.6546 187.081 48.2291 183.759 48.3587C184.826 53.6816 186.068 58.5619 192.7 59.0981C194.829 59.2702 196.437 58.783 198.411 58.0194C199.346 57.4849 200.105 56.8409 201.104 57.466L201.064 58.071C198.013 62.9529 188.828 63.1833 184.285 60.4122C177.966 56.558 177.327 47.165 180.628 41.1748C182.383 37.9913 186.395 36.1071 189.735 35.2962ZM192.015 46.3004L197.346 46.1997C196.743 40.5154 195.822 36.5251 189.03 37.2789C187.85 37.8107 186.62 38.3277 185.965 39.5107C184.951 41.3413 182.617 44.2482 184.721 45.9948C186.239 46.3973 190.252 46.2908 192.015 46.3004Z"></path><path fill="#232021" d="M318.125 35.2481L318.736 35.2276L319.098 35.6495C319.386 36.9147 319.112 38.8952 318.993 40.2434C321.146 38.3168 323.53 35.7013 326.489 35.2446C330.345 34.6496 335.656 36.4383 336.49 40.7738C337.675 46.9339 336.443 53.0961 337.411 59.4411C338.328 59.8175 340.48 60.1384 340.969 60.6914L340.923 61.0109C339.6 61.7815 334.139 61.4612 331.958 61.628C332.187 56.2992 332.614 48.3356 331.833 43.0637C331.544 41.1184 330.146 39.9996 328.519 39.0662C324.322 38.4802 321.238 39.4404 318.982 43.145C318.953 48.4365 318.885 53.3857 319.212 58.6746C319.573 59.3115 322.215 60.099 323.382 60.9869L323.186 61.3831C320.085 61.5905 316.889 61.3612 313.772 61.4556C312.589 61.4915 310.177 61.9523 309.729 60.6929C310.497 59.7838 312.656 60.0942 313.641 58.9523C314.724 57.6962 314.186 41.617 313.978 39.0162C312.724 39.0612 310.766 39.2191 309.717 38.4825L309.679 38.0696C311.09 36.7209 315.631 36.3788 318.125 35.2481Z"></path><path fill="#232021" d="M144.522 23.1069C147.496 23.0565 156.94 22.683 159.199 23.5909L159.307 23.9547C157.658 24.887 156.566 24.848 154.68 25.0979C153.91 28.7751 154.053 34.0236 154.052 37.867L154.238 59.0083C160.031 58.7345 165.171 59.6288 171 58.201C171.504 56.379 171.974 52.0808 173.813 51.4335L174.409 51.9642C173.856 54.7134 173.676 58.8467 173.666 61.6969C169.639 61.2778 147.264 61.7958 146.119 61.1656C146.3 60.1625 147.373 59.3838 148.166 58.6598C148.653 55.1068 149.188 27.9611 148.108 25.5395C146.863 24.3982 143.983 25.2509 143.077 23.6937C143.668 23.1094 143.56 23.2802 144.522 23.1069Z"></path><path fill="#232021" d="M167.455 78.5061C169.169 78.7137 173.159 78.3046 174.255 79.1552C173.377 79.8107 171.602 81.0404 171.652 82.2926C171.857 87.4159 171.622 92.5518 171.75 97.6691C171.768 98.3983 173.704 99.5457 174.333 99.9551L174.299 100.241C174.189 100.288 174.076 100.33 173.961 100.365C172.634 100.775 165.87 100.678 164.427 99.9564L164.425 99.59C165.128 99.0141 166.043 99.032 166.966 98.9372C167.144 94.1034 167 88.3856 167.003 83.4834C165.899 85.9759 164.594 88.5565 163.445 91.0747C161.979 94.2871 160.264 98.6129 158.479 101.56C156.85 99.2621 152.936 90.3589 151.245 87.0595L149.246 83.0724C149.843 87.9768 149.313 92.9452 149.699 97.8554C149.833 99.5519 151.096 98.2992 152.221 99.8498L152.026 100.235C151.901 100.283 151.775 100.326 151.646 100.362C150.586 100.656 146.511 100.666 145.434 100.087L145.329 99.5598C145.839 98.9228 146.034 99.2455 147.132 99.0242C148.026 97.2984 147.578 83.2867 147.484 80.5232C146.606 80.2454 145.626 80.0825 145.244 79.207C146.101 78.4635 150.994 78.7066 152.429 78.7172C154.578 82.5087 157.798 89.8592 159.795 94.03C161.916 90.6479 165.64 80.6863 167.455 78.5061Z"></path><path fill="#232021" d="M197.741 85.0422L198.076 85.3592C198.241 86.0208 198.222 86.4178 198.228 87.0994C198.907 87.3115 201.415 84.7877 203.503 84.9543C209.062 85.3981 207.697 94.771 207.722 98.8597C208.612 99.0234 209.434 99.08 209.967 99.7838C209.151 100.413 204.883 100.267 203.181 100.509C203.44 98.2142 203.593 95.9087 203.637 93.5998C203.667 92.4267 203.594 89.6011 202.516 88.8897C196.748 85.0834 198.157 95.6493 198.296 98.4968C199.041 98.9438 200.109 99.163 200.525 99.7534L200.198 100.062C198.544 100.496 187.55 100.123 185.135 100.215C184.428 100.242 184.608 99.1083 184.38 98.5334C183.56 99.0956 182.713 99.735 181.906 100.325C178.548 102.16 174.622 98.2008 176.84 94.8925C178.571 92.3123 182.101 91.872 184.926 91.2629C183.446 87.0021 181.549 86.7537 178.478 89.9108L178.077 89.9061C176.531 86.2771 180.864 85.3971 183.469 85.3033C185.305 85.2371 186.271 85.7016 187.831 86.61C190.062 92.2423 185.243 102.145 193.991 98.582C194.156 96.2511 194.079 90.7572 193.989 88.3501C193.412 87.6591 192.776 87.6842 191.815 87.108L191.782 86.6227C192.41 86.2857 196.678 85.3143 197.741 85.0422ZM182.026 98.2173C183.182 97.8442 183.592 97.537 184.605 96.8718C184.644 95.8214 184.794 94.1061 184.503 93.1638C184.255 93.0602 184.031 92.9284 183.774 92.9593C181.157 93.9164 178.669 96.1093 182.026 98.2173Z"></path><path fill="#232021" d="M262.422 98.4603C262.476 96.0341 262.786 90.1169 262.156 88.0507C261.181 87.1166 260.621 87.616 260.019 86.7442C260.352 85.7962 261.98 85.8853 262.912 85.6982C264.097 85.4602 265.314 84.9487 266.506 85.0372C266.937 85.5824 266.456 86.749 266.69 86.6704C270.391 85.4245 272.224 83.0306 275.54 87.0347C275.788 86.8954 276.036 86.756 276.284 86.6166C277.933 85.3949 278.034 85.3269 279.9 84.7463L282.46 85.1898C284.064 86.5098 284.601 87.1946 284.885 89.5326C285.22 92.2956 283.503 96.5103 285.844 98.8304C286.081 99.0656 287.631 99.7715 288.004 99.9418C285.468 100.011 282.932 100.095 280.397 100.194C280.459 99.0185 282.443 84.4181 276.554 88.4104C275.03 89.4432 275.765 95.8369 275.766 98.1893C276.719 98.6849 278.198 99.4007 279.063 99.9579C277.696 100.005 271.913 100.015 271.151 100.151C269.508 99.6098 268.737 99.8043 267.033 100.049C265.675 100.054 260.971 100.26 260.023 99.5305C260.354 98.731 261.623 98.6112 262.422 98.4603ZM270.802 98.7664C271.89 97.6922 272.094 90.2514 271.068 89.0645C268.543 86.1435 265.76 88.6106 266.597 92.2368C266.883 93.4758 266.197 97.4966 267.071 98.7936C268.709 99.007 269.174 99.1279 270.802 98.7664Z"></path><path fill="#343035" d="M267.071 98.7936C268.709 99.007 269.174 99.1279 270.802 98.7664L271.151 100.151C269.508 99.6098 268.737 99.8043 267.033 100.049L267.071 98.7936Z"></path><path fill="#232021" d="M232.591 85.0465C236.482 84.6665 239.19 85.9227 242.989 86.2921C243.363 86.3285 243.473 86.7753 243.576 87.0445C242.613 88.7096 241.032 86.9219 240.593 90.7744C240.143 94.7196 236.326 95.3691 233.092 95.3518C232.535 95.3488 232.196 95.8713 231.943 96.3071C232.717 98.4606 239.827 96.5462 241.781 97.8287C244.034 99.3065 243.708 102.547 242.518 104.653C239.693 109.063 232.226 109.8 228.103 106.722C225.687 104.918 227.973 102.202 229.372 100.646C229.498 99.7793 228.877 99.4005 228.439 98.1923C228.461 96.3142 229.439 96.4047 230.306 95.2103C229.8 94.2248 228.414 92.6646 228.061 91.5057C226.97 87.9233 229.303 86.0345 232.591 85.0465ZM237.678 106.171C239.632 105.095 240.997 101.55 238.068 100.824C236.277 100.379 233.655 100.675 231.775 100.778C227.579 105.762 233.439 107.928 237.678 106.171ZM234.499 93.9879C235.892 93.1951 236.23 93.0052 236.743 91.406C237.242 89.8529 236.819 87.1339 234.993 86.6462C234.813 86.5993 234.63 86.5604 234.446 86.5298C230.442 87.5068 231.059 92.3882 234.499 93.9879Z"></path><path fill="#232021" d="M413.939 78.9822C414.768 79.9436 414.164 84.1264 414.065 85.6963C416.445 85.5587 416.051 85.7665 418.333 86.1884C418.647 86.2466 423.863 84.3908 424.53 84.6006C426.443 85.2027 423.847 94.6508 425.996 96.6231C426.423 97.0147 426.778 97.1844 427.267 97.1933C428.115 97.2087 428.83 97.0104 429.438 96.4334C429.469 96.4053 429.501 96.3772 429.532 96.349C429.588 96.3007 429.643 96.2524 429.699 96.204C430.667 95.0892 430.417 89.2113 430.446 87.6682C429.35 87.2684 428.735 87.1889 428.249 86.2496C428.99 85.3195 432.922 84.9035 434.797 84.2878C434.23 88.5019 434.447 93.5049 434.511 97.8152C435.773 98.3733 436.717 99.0549 437.849 99.8218C435.846 99.7608 432.915 100.028 430.915 99.6208C430.458 99.5279 430.362 98.8442 430.206 98.3601L430.323 98.1361L430.187 97.8935C429.586 98.2574 427.415 100.07 426.905 100.126C418.96 100.987 421.35 93.087 420.865 87.229C416.873 86.3652 417.636 88.3156 414.024 87.7315C414.05 89.2179 414.076 90.9333 413.994 92.4016C413.737 97.0188 414.602 97.374 418.713 97.0169C417.662 98.0579 416.474 99.0081 415.332 99.9536C406.92 100.371 411.369 93.4919 410.083 88.3905C409.942 87.8337 408.699 88.2622 408.134 87.7727C408.303 87.04 409.504 86.2799 410.205 85.7058C410.22 84.3243 410.04 82.5207 409.938 81.1115C411.227 80.5448 412.926 79.9074 413.939 78.9822Z"></path><path fill="#232021" d="M211.575 35.8585C211.866 35.8157 212.352 35.6928 212.565 35.8076C214.563 36.8822 219.199 44.1214 220.053 45.9697C221.709 43.6841 225.738 37.7973 227.432 36.0668C228.505 36.039 230.813 35.8482 231.676 36.4196C231.46 37.5072 229.666 37.7903 228.889 38.6448C226.308 41.4865 223.777 44.6258 221.355 47.5923C223.322 50.8983 226.36 54.3212 228.561 57.53C229.397 58.7488 231.329 60.0098 232.512 61.0405C231.778 61.7662 227.281 61.5453 225.972 61.5432C224.249 60.9813 219.594 53.2643 218.391 51.4049C215.368 54.9167 213.56 58.0123 210.861 61.5913C209.446 61.514 207.383 61.6458 206.112 61.2592L205.981 60.9094C206.644 59.9948 208.915 59.2996 209.817 58.2546C212.298 55.3803 214.595 52.3868 217.116 49.5408C214.81 46.6346 212.767 42.9009 210.229 40.0529C209.373 39.0934 206.809 38.0843 206.042 37.1293C206.726 36.3035 210.384 36.0114 211.575 35.8585Z"></path><path fill="#232021" d="M266.044 35.3197C268.547 35.125 273.333 35.0068 275.38 36.4479C275.969 37.8749 275.283 42.8183 274.261 44.026L273.832 44.0291C273.058 43.0535 273.061 41.4266 272.893 40.1031C266.225 35.4066 259.232 38.502 259.338 46.9086C259.417 53.1305 262.001 59.0267 269.028 59.0624C271.92 59.0028 273.658 58.1009 276.617 57.6743C275.701 58.6558 275.12 59.4475 274.324 60.5332C273.811 60.7623 273.291 60.978 272.767 61.1801C260.181 65.9653 250.492 55.3997 255.48 43.1022C257.06 39.2065 262.231 36.6901 266.044 35.3197Z"></path><path fill="#232021" d="M294.857 124.197C299.074 120.428 304.631 121.341 304.502 127.87C304.448 130.606 302.069 132.516 299.976 133.99C297.779 134.918 297.045 134.546 294.592 134.838C294.583 136.382 294.589 137.936 294.666 139.482C294.753 141.232 295.266 141.018 296.759 141.468L296.866 141.793L296.496 142.044C295.161 142.049 291.175 142.312 290.312 141.753C290.618 141.205 291.567 141.412 291.73 141.144C292.808 139.375 292.616 125.206 291.931 124.114C291.367 123.943 291.041 123.937 290.459 123.896L290.188 123.512L290.44 123.142C291.702 122.533 293.238 122.117 294.644 122.239C295.365 122.84 294.245 122.875 294.516 124.014L294.857 124.197ZM294.588 132.007C296.272 133.122 297.144 133.663 299.278 133.216C299.366 133.197 299.454 133.177 299.542 133.156C301.816 131.656 302.917 128.565 301.743 126.051C301.307 125.096 300.5 124.36 299.509 124.014C297.908 123.453 296.794 124.016 295.402 124.697C294.182 126.434 294.624 129.662 294.588 132.007Z"></path><path fill="#030303" d="M294.857 124.197C299.074 120.428 304.631 121.341 304.502 127.87C304.448 130.606 302.069 132.516 299.976 133.99L299.542 133.156C301.816 131.656 302.917 128.565 301.743 126.051C301.307 125.096 300.5 124.36 299.509 124.014C297.908 123.453 296.794 124.016 295.402 124.697L294.857 124.197Z"></path><path fill="#232021" d="M223.638 116.287C225.214 116.14 227.248 116.239 228.429 115.409L228.86 115.557C229.463 116.992 228.652 128.288 228.974 130.974C229.423 134.713 231.075 133.784 231.091 134.871C230.216 135.23 228.491 134.903 227.617 134.551C226.16 133.964 227.256 133.379 226.002 133.228C222.639 135.176 222.18 135.841 218.378 133.675C216.864 130.781 216.117 127.299 218.516 124.595C220.16 123.319 222.504 121.951 224.665 122.239C225.377 122.334 225.85 122.67 226.537 122.576L226.912 122.015C226.753 120.46 226.704 119.345 226.691 117.78L223.638 116.287ZM226.485 124.663C224.042 123.435 221.783 122.583 219.919 125.401C219.043 128.16 219.201 133.549 223.58 133.251C227.395 132.992 226.878 127.429 226.485 124.663Z"></path><path fill="#030303" d="M226.912 122.015L227.272 122.256C227.136 123.18 226.836 123.808 226.485 124.663C224.042 123.435 221.783 122.583 219.919 125.401C219.28 125.265 219.031 125.006 218.516 124.595C220.16 123.319 222.504 121.951 224.665 122.239C225.377 122.334 225.85 122.67 226.537 122.576L226.912 122.015Z"></path><path fill="#232021" d="M359.619 84.7898L360.26 84.77L360.566 85.1143C360.465 85.7142 360.393 86.1688 360.351 86.7753C361.064 86.945 362.536 85.1927 363.91 84.8835C371.536 83.1664 370.009 93.1401 369.955 98.0233C370.604 98.4008 371.379 98.7293 371.645 99.4027L371.364 99.8026C370.499 100.08 366.724 100.024 365.433 100.07C365.836 97.27 366.668 89.8765 364.358 87.9997C363.929 87.9709 363.499 87.953 363.069 87.9462C359.024 87.8941 360.434 95.1475 360.497 98.0196C361.479 98.5813 362.556 99.3055 363.52 99.9224C361.52 99.93 355.382 100.265 353.932 99.591L353.916 99.1933C354.503 98.5571 355.351 98.436 356.197 98.2161C356.204 95.1712 356.241 92.0191 356.176 88.9729C356.123 86.5346 354.979 88.0126 354.07 87.2528C354.041 87.0834 353.929 86.6528 354.006 86.5644C354.811 85.641 358.41 85.0582 359.619 84.7898Z"></path><path fill="#232021" d="M244.477 35.264C244.751 35.1652 244.972 35.2514 245.264 35.3136C246.079 37.0773 244.404 54.9747 245.602 58.4434C246.557 61.2102 249.519 59.3135 249.906 60.9925C248.512 61.8144 239.224 61.4997 236.937 61.4996C236.221 61.4617 236.492 61.5553 235.907 61.1503L235.893 60.7134C237.045 59.7522 238.498 60.3857 239.808 59.244C240.904 56.9724 240.381 42.4189 240.224 39.1443C239.14 39.0665 236.204 39.4343 236.13 37.9539C237.41 36.7408 242.084 36.1944 244.477 35.264Z"></path><path fill="#232021" d="M309.676 84.8019L310.36 84.7861C310.695 85.3198 310.447 85.9491 310.336 86.7053C311.071 87.2172 312.439 85.3311 313.385 85.0395C321.579 82.5152 320.043 93.1048 319.981 98.08C321.168 98.6661 322.1 99.1921 323.241 99.8672C321.112 100.045 317.923 99.9671 315.557 100.087C315.884 97.8025 316.481 89.0415 314.455 87.8963C314.128 87.8755 313.799 87.8663 313.471 87.8688C308.848 87.868 310.4 94.8241 310.557 98.0602C311.616 98.5489 312.69 99.3061 313.67 99.9577C311.67 99.9504 305.636 100.267 304.178 99.5932L304.118 99.1891C304.639 98.5663 305.46 98.4224 306.251 98.1879C306.287 95.9362 306.524 89.7686 306.092 87.9045C305.462 87.2789 305.144 87.3913 304.157 87.2007L303.947 86.7399C304.768 85.5506 308.057 85.1504 309.676 84.8019Z"></path><path fill="#232021" d="M316.921 121.711C315.255 118.89 320.779 114.235 323.254 117.175C324.236 119.676 322.108 122.509 319.967 123.702C320.108 125.277 322.434 127.76 323.536 129.09C324.26 131.026 324.423 130.005 326.009 131.354C328.23 132.952 330.251 132.359 331.822 133.111L331.794 133.495C331.072 134.295 330.295 134.525 329.301 134.93C326.838 134.67 326.29 134.424 324.156 133.128C321.909 134.955 319.284 134.966 316.589 134.725C311.137 131.171 312.884 127.722 316.891 124.161C317.404 123.705 317.016 122.388 316.921 121.711ZM319.406 122.88L320.063 122.154C321.177 120.902 322.28 119.033 320.718 117.654L319.988 117.706C319.123 118.189 318.994 118.602 318.566 119.477C318.697 120.876 318.652 121.664 319.406 122.88ZM321.046 133.251C322.044 132.923 322.294 133.009 322.945 132.294C322.533 131.525 318.132 125.757 317.516 125.171C316.358 126.754 315.554 127.762 315.906 129.788C316.403 132.636 318.568 133.406 321.046 133.251Z"></path><path fill="#030303" d="M316.921 121.711C315.255 118.89 320.779 114.235 323.254 117.175C324.236 119.676 322.108 122.509 319.967 123.702L319.406 122.88L320.063 122.154C321.177 120.902 322.28 119.033 320.718 117.654L319.988 117.706C319.123 118.189 318.994 118.602 318.566 119.477L318.078 119.484C317.477 120.138 317.17 120.679 317.076 121.591L316.921 121.711Z"></path><path fill="#232021" d="M216.612 85.2911C226.816 84.2756 222.521 92.127 223.741 98.0049C223.946 98.9917 225.167 98.8954 225.652 99.6403L225.468 99.9781C224.09 100.494 222.239 100.348 220.782 100.332C219.16 100.314 220.209 99.6116 219.34 98.6949C217.5 99.1933 217.75 100.822 214.096 100.779C212.082 100.073 211.353 98.7423 211.397 96.6405C211.495 91.9562 217.26 92.8114 219.398 90.834C219.579 90.2773 219.715 90.1341 219.44 89.5716C218.593 87.8344 217.4 87.7576 215.638 88.0438C214.22 88.2739 214.496 89.531 213.37 90.0738L212.991 89.8614C212.785 89.2018 212.812 88.4913 213.069 87.8495C213.627 86.4125 215.275 85.874 216.612 85.2911ZM217.025 98.2146C218.173 97.8341 218.587 97.5315 219.598 96.8737C219.638 95.8226 219.793 94.1084 219.492 93.1687C219.264 93.0685 219.049 92.9394 218.81 92.9586C216.183 93.9018 213.633 96.0964 217.025 98.2146Z"></path><path fill="#232021" d="M455.239 84.5372C455.314 84.5269 455.388 84.517 455.463 84.5075C461.232 83.7826 462.436 86.8894 462.922 91.8048C460.001 92.3627 456.172 92.4648 453.184 92.3831L453.744 93.9225C455.233 97.9272 457.88 98.1832 461.477 96.784L462.206 97.4435L462.182 97.9448C460.021 101.189 451.012 100.746 449.893 96.3804C448.201 89.7796 449.278 86.9813 455.239 84.5372ZM453.196 90.738L456.889 90.8122C457.997 90.6094 457.751 90.818 458.378 90.1106C458.875 87.9296 457.359 86.3295 455.201 86.1704C453.447 87.7286 453.627 88.4669 453.196 90.738Z"></path><path fill="#232021" d="M251.899 85.08C253.948 84.9104 254.551 85.2223 256.432 86.037C262.956 93.9226 253.752 93.0869 248.848 92.994L249.091 93.6233C251.075 98.6861 253.26 99.1534 258.113 97.0122C258.098 102.388 245.912 102.315 245.187 95.1813C244.599 89.3986 245.978 86.2288 251.899 85.08ZM248.826 91.2709L253.287 91.3901L254.059 91.1317C254.757 89.7212 253.821 87.8803 252.508 87.0718C252.238 86.9054 250.931 86.9899 250.545 87.0132C249.336 88.4284 249.217 89.4419 248.826 91.2709Z"></path><path fill="#232021" d="M295.96 85.084C297.914 84.9295 298.605 85.2869 300.386 86.078C306.929 94.0301 297.574 93.0596 292.697 92.9831C293.217 94.0557 293.746 95.3977 294.219 96.5131C297.327 98.9707 298.43 98.435 301.918 97.1674C302.464 100.432 296.752 101.048 294.47 100.701C288.16 99.7423 287.004 89.8808 291.838 86.5541C293.211 85.6095 294.343 85.3519 295.96 85.084ZM297.023 91.4104C297.388 91.3104 297.921 91.2636 298.002 90.9352C298.691 88.1521 296.824 86.8299 294.604 86.9817C293.524 88.1774 292.403 89.382 293.443 90.8965C294.342 91.5322 295.863 91.3991 297.023 91.4104Z"></path><path fill="#232021" d="M149.276 122.522C150.401 122.208 151.59 122.201 152.719 122.502C155.883 123.346 157.935 126.401 157.519 129.65C157.103 132.898 154.348 135.338 151.073 135.357C147.798 135.376 145.014 132.969 144.56 129.726C144.106 126.482 146.121 123.403 149.276 122.522ZM148.105 132.631C149.086 133.608 149.983 134.421 151.444 134.359C155.959 134.167 155.519 126.83 153.257 124.433C153.013 124.174 152.476 123.815 152.317 123.605C151.368 123.331 150.734 123.368 149.757 123.357C146.188 125.021 147.08 129.619 148.105 132.631Z"></path><path fill="#343035" d="M149.276 122.522C150.401 122.208 151.59 122.201 152.719 122.502L152.317 123.605C151.368 123.331 150.734 123.368 149.757 123.357L149.276 122.522Z"></path><path fill="#232021" d="M346.056 78.1283L349.851 78.138C350.767 78.1486 351.69 78.1315 352.316 78.7728C351.966 79.6899 350.326 79.2974 349.656 80.4885C349.379 82.5759 349.297 97.0614 349.759 97.9722C350.068 98.581 351.561 98.4679 352.007 99.3271L351.761 99.7193C350.921 100.24 350.023 100.049 349.024 99.9714C347.317 100.007 343.825 100.209 342.355 99.5347L342.297 99.1329C342.914 98.5133 343.898 98.3407 344.761 98.1006C345.041 94.7578 345.266 83.712 344.551 79.9825C344.429 79.3447 342.83 79.9095 341.98 78.7608L342.165 78.4534C343.181 78.0625 344.909 78.1406 346.056 78.1283Z"></path><path fill="#232021" d="M378.33 84.5449C381.213 84.3021 381.789 84.5102 384.53 85.2604L384.116 89.2102C384.021 89.2616 383.878 89.3387 383.688 89.4416C382.843 88.2641 382.007 86.5422 380.505 86.1589C379.798 85.9783 379.072 86.1873 378.5 86.5661C377.691 87.1012 377.312 87.3281 377.088 88.2506C377.687 90.8159 382.421 90.1188 384.107 91.5937C388.416 95.363 383.967 99.5722 379.802 100.228C378.53 100.272 375.976 100.398 374.906 99.7146C373.738 98.9691 373.745 95.9211 374.509 94.867C375.188 95.1228 375.864 96.9746 376.598 97.7582C378.283 99.5574 382.148 98.7126 381.989 95.9035C380.915 93.4338 375.073 94.4115 374.124 91.0959C373.035 87.2895 375.085 85.7226 378.33 84.5449Z"></path><path fill="#030303" d="M11.1216 112.996C11.8545 113.031 12.2386 112.899 12.7084 113.431C13.9382 114.874 15.2062 117.13 15.2108 119.085C15.2171 121.772 12.7716 121.636 10.9414 121.606C9.12645 122.734 11.2437 124.902 6.07879 124.863C3.76007 124.029 2.33235 120.481 0.833354 118.096C3.3002 116.968 9.0005 114.281 11.1216 112.996ZM3.15845 118.715C4.04614 120.546 4.66 122.233 6.43679 123.366C7.37876 123.178 7.80749 123.159 8.47767 122.447C9.33986 120.859 8.31149 118.318 6.99297 117.306L6.37979 117.251C5.26961 117.802 4.30129 118.235 3.15845 118.715ZM8.29619 116.391C9.23242 117.828 10.0393 119.666 11.4752 120.54C12.6614 120.154 12.5089 120.381 13.2659 119.519C13.705 117.802 12.9188 115.407 11.1451 114.963C10.3008 115.413 9.1612 116.061 8.29619 116.391Z"></path><path fill="#232021" d="M392.791 79.2937L393.307 79.4285C393.724 80.2135 393.242 84.5138 393.157 85.7237C394.626 85.6669 395.951 85.2822 396.826 86.5887C396.321 88.2474 394.415 87.8721 393.036 87.7451C393.144 89.2439 393.156 91.0902 393.073 92.5779C392.826 97.0018 393.712 97.3874 397.674 97.0037C397.069 97.6929 396.09 98.5719 395.398 99.2259C394.273 100.164 393.581 100.023 392.235 100.016C387.201 99.993 390.186 91.5221 389.137 88.6589C388.792 87.7155 388.01 88.3369 387.237 87.4884C387.453 86.9246 388.721 86.174 389.286 85.781C389.281 83.9857 389.23 83.0386 389.03 81.2494C390.021 80.6348 391.715 79.8311 392.791 79.2937Z"></path><path fill="#232021" d="M443.737 78.9842C444.563 79.6314 444.023 84.3099 443.955 85.5354C445.52 85.4269 446.455 85.0388 447.497 86.2764C447.181 87.9788 445.266 87.6543 443.983 87.5143C443.972 89.4409 443.711 95.3378 444.483 96.733C445.258 97.2437 446.499 96.9671 447.711 97.2093L447.729 97.581C447.084 98.3251 446.542 98.7488 445.79 99.3684C444.862 99.9091 443.349 100.26 442.455 99.9856C438.591 98.8021 440.679 91.6108 440.026 88.7294C439.83 87.8632 438.511 87.8978 438.057 87.1902C438.579 86.4286 439.225 86.1607 440.03 85.724C440.313 80.2426 438.894 81.5308 443.737 78.9842Z"></path><path fill="#232021" d="M328.57 79.7323C329.306 79.7716 329.132 79.6489 329.54 80.0889C329.599 81.4036 329.268 84.3327 329.195 85.936C330.461 85.9512 331.854 85.733 332.736 86.7389L332.661 87.2296C331.501 88.2074 330.594 88.0157 329.078 87.9808C329.082 89.6056 329.097 91.2305 329.125 92.8551C329.154 94.3297 329.208 96.3492 330.326 97.4235C331.551 97.7289 331.252 97.2751 332.665 97.0626L332.962 97.5212C332.774 98.2477 331.81 98.9449 331.208 99.4765C330.782 99.7651 329.57 100.387 329.066 100.663C328.543 100.492 326.984 99.9963 326.632 99.6976C323.883 97.3651 325.79 92.6405 325.17 88.6117C324.705 87.9412 324.303 87.9792 323.42 87.6722L323.377 87.3055L325.21 85.9182C325.242 84.6019 325.108 82.7287 325.051 81.3742C326.271 80.6128 327.249 80.2558 328.57 79.7323Z"></path><path fill="#232021" d="M208.064 122.305C215.708 121.863 213.305 127.674 213.616 132.778C213.662 133.525 214.744 134.337 215.297 134.797C214.644 135.029 212.566 134.798 211.8 134.687C211.435 134.635 211.275 133.914 211.098 133.457C209.456 133.27 208.903 135.772 204.543 134.442C204.076 133.96 203.759 132.934 203.637 132.268C202.881 128.123 208.89 127.391 211.673 126.908C210.712 124.143 207.995 121.504 205.756 125.277C205.497 125.712 205.276 125.714 204.863 125.757C204.058 123.421 206.412 122.841 208.064 122.305ZM207.998 133.43C210.132 132.616 212.744 130.671 211.143 128.106C210.855 128.04 210.62 127.951 210.339 128.018C208.621 128.478 206.994 128.844 206.081 130.52C205.234 132.075 206.847 133.009 207.998 133.43Z"></path><path fill="#030303" d="M415.478 121.461C417.426 121.475 418.118 121.808 419.82 122.771C420.86 124.821 420.998 125.237 421.222 127.486C418.392 128.248 415.18 128.189 412.256 128.061C413.102 134.503 416.462 132.521 420.829 132.385L420.893 132.66C417.784 135.159 415.093 134.802 411.706 133.277L410.164 131.137C409.486 125.763 409.878 123.045 415.478 121.461ZM415.677 127.071C416.523 127.068 416.935 127.066 417.789 126.912C418.557 126.24 418.329 126.562 418.686 125.578C418.619 123.815 417.362 122.938 415.823 122.514C414.12 122.879 412.364 124.04 412.069 125.879C412.26 126.638 412.136 126.385 412.854 126.935C413.793 127.015 414.735 127.06 415.677 127.071Z"></path><path fill="#030303" d="M415.478 121.461C417.426 121.475 418.118 121.808 419.82 122.771C420.86 124.821 420.998 125.237 421.222 127.486C418.392 128.248 415.18 128.189 412.256 128.061C412.979 126.538 414.151 127.89 415.677 127.071C416.523 127.068 416.935 127.066 417.789 126.912C418.557 126.24 418.329 126.562 418.686 125.578C418.619 123.815 417.362 122.938 415.823 122.514L415.478 121.461Z"></path><path fill="#232021" d="M384.503 122.775C389.965 120.718 392.816 121.796 393.159 127.901L387.807 128.032C386.407 128.222 385.646 127.827 384.57 128.736C384.375 129.628 384.888 130.594 385.234 131.479C388.514 134.399 389.976 133.174 393.62 131.755C386.384 140.444 376.774 128.692 384.503 122.775ZM384.215 127.225C384.997 127.05 389.551 126.891 391.17 126.682C390.136 123.865 388.738 121.319 385.354 123.662C384.659 125.179 384.525 125.586 384.215 127.225Z"></path><path fill="#030303" d="M384.503 122.775C389.965 120.718 392.816 121.796 393.159 127.901L387.807 128.032C386.325 127.751 385.282 128.386 384.215 127.225C384.997 127.05 389.551 126.891 391.17 126.682C390.136 123.865 388.738 121.319 385.354 123.662L384.503 122.775Z"></path><path fill="#232021" d="M455.167 121.508C457.183 121.322 457.938 121.635 459.656 122.769C460.426 124.117 461.182 125.097 460.89 126.643C459.818 128.698 454.708 128.319 452.612 128.034C452.14 129.055 452.719 130.199 453.137 131.345C453.672 131.703 454.947 132.447 455.198 132.95L455.304 133.573L456.812 134.53C454.685 134.577 453.586 134.114 451.622 133.354C448.332 128.287 449 123.39 455.167 121.508ZM456.448 127.166C456.536 127.157 456.623 127.147 456.711 127.136C457.874 126.994 457.969 126.99 458.572 126.218C458.954 124.593 457.678 123.146 456.283 122.494C454.513 122.745 452.079 123.931 452.154 125.98C452.43 126.532 452.468 126.685 453.029 126.954C453.574 126.972 456.048 127.027 456.448 127.166Z"></path><path fill="#030303" d="M455.167 121.508C457.183 121.322 457.938 121.635 459.656 122.769C460.426 124.117 461.182 125.097 460.89 126.643C459.818 128.698 454.708 128.319 452.612 128.034L452.672 127.473C453.613 127.03 455.27 127.635 456.448 127.166C456.536 127.157 456.623 127.147 456.711 127.136C457.874 126.994 457.969 126.99 458.572 126.218C458.954 124.593 457.678 123.146 456.283 122.494C456.131 121.676 455.831 121.737 455.167 121.508Z"></path><path fill="#232021" d="M404.261 84.5568L404.445 84.614C404.952 85.4268 404.577 96.0518 404.644 98.0633C405.417 98.2612 406.578 98.4512 406.778 99.2953C406.05 99.8763 400.174 99.7672 398.56 99.884C398.099 99.6326 398.259 99.7708 397.975 99.2238C398.367 98.4397 399.905 98.1503 400.037 97.6991C400.713 95.3971 400.168 91.3882 400.32 88.8781C400.433 87.0064 398.922 87.5119 397.848 86.4229C398.376 85.5579 402.668 84.977 404.261 84.5568Z"></path><path fill="#232021" d="M430.345 121.501C437.061 121.479 434.887 128.105 435.034 132.307C435.63 132.946 435.97 132.879 436.894 133.136L436.982 133.454C436.163 134.171 433.941 134.239 432.973 133.439C432.413 131.656 434.197 123.851 431.428 123.537C428.295 123.182 426.847 123.833 426.635 127.015C426.599 128.337 426.603 131.537 426.964 132.689C427.384 133.012 428.055 133.102 428.589 133.217L428.582 133.552C427.644 134.119 422.699 134.418 422.176 133.545C422.915 133.12 423.417 133.167 423.792 132.565C424.786 130.97 424.523 125.717 424.179 124.004C423.289 123.022 423.454 124.136 422.059 123.214L422.061 122.805C422.934 122.402 425.692 121.8 426.599 121.974L426.926 123.01C427.346 123.127 429.55 121.852 430.345 121.501Z"></path><path fill="#232021" d="M176.911 117.9C176.059 117.772 174.77 117.714 174.375 116.913C175.413 116.342 180.911 116.085 181.72 117.041C181.246 117.673 180.273 117.803 179.473 118.012C179.48 120.539 179.344 131.56 179.653 133.413C180.54 133.887 180.794 133.708 181.893 133.671C182.998 133.649 184.811 133.636 185.882 133.601C188.306 133.521 187.85 130.69 188.507 130.509C189.811 132.111 189.818 134.882 186.897 134.908C185.08 135.023 177.762 134.975 176.125 134.706C175.721 134.164 176.739 133.807 176.758 133.392C176.968 128.817 176.942 122.296 176.911 117.9Z"></path><path fill="#030303" d="M181.893 133.671C182.998 133.649 184.811 133.636 185.882 133.601C188.306 133.521 187.85 130.69 188.507 130.509C189.811 132.111 189.818 134.882 186.897 134.908C185.23 134.365 183.189 135.026 181.535 134.35L181.893 133.671Z"></path><defs><linearGradient id="gradient_0" gradientUnits="userSpaceOnUse" x1="351.81158" y1="125.76649" x2="341.45126" y2="123.96373"><stop offset="0" stop-color="black"></stop><stop offset="1" stop-color="#272121"></stop></linearGradient></defs><path fill="url(#gradient_0)" d="M342.742 117.287C341.974 117.18 341.423 117.138 340.7 116.827L340.696 116.506C342.374 115.654 351.561 116.009 354.104 116.062C354.005 117.128 353.947 118.041 353.676 119.081C353.07 119.751 353.368 119.604 352.512 119.705C351.933 118.939 352.869 118.925 352.671 117.676C351.401 117.06 347.117 116.939 345.731 117.295C345.263 117.908 345.355 122.856 345.358 123.859C345.792 124.274 346.472 124.199 347.185 124.268C348.228 124.416 348.981 124.293 349.378 125.464C348.057 125.454 346.566 125.479 345.27 125.322C345.259 127.679 345.148 130.794 345.248 133.087C345.71 133.374 347.039 134.016 347.236 134.185C345.867 134.249 343.45 134.435 342.175 134.255L342.059 133.762C342.674 132.728 342.878 132.009 342.835 130.81C342.674 126.31 343.026 121.782 342.742 117.287Z"></path><path fill="#030303" d="M87.6632 144.108C90.0707 143.868 90.204 144.154 92.2656 145.578C93.5132 149.588 93.8094 151.523 89.3003 153.148C84.2115 153.225 81.411 145.55 87.6632 144.108ZM89.3785 151.827C93.5592 150.062 91.0502 145.299 87.8009 145.225C84.139 146.829 85.7055 151.24 89.3785 151.827Z"></path><path fill="#030303" d="M356.294 122.106C361.515 121.134 359.842 123.713 362.73 126.249C364.05 125.866 365.304 122.243 367.719 121.901L367.842 122.135C367.344 123.437 364.46 126.43 363.407 127.6C364.69 129.326 365.988 130.981 367.39 132.614C367.972 133.293 368.495 133.428 368.918 134.064L368.533 134.319C364.308 134.404 364.095 132.664 361.999 129.356C361.033 130.794 358.188 135.683 356.27 134.429C356.282 134.304 356.297 134.155 356.314 133.982C358.127 132.447 359.95 130.278 361.435 128.572C360.266 126.748 359.023 125.068 357.484 123.542C356.882 122.946 356.54 122.918 356.294 122.106Z"></path><path fill="#030303" d="M259.59 122.124C260.101 122.077 260.613 122.042 261.125 122.021C265.357 121.87 265.087 123.682 265.185 127.131C263.967 125.17 263.819 123.149 260.889 123.007C259.43 122.936 258.206 123.601 258.224 125.293C259.518 128.269 268.428 125.854 264.693 133.553C263.236 134.289 262.648 134.575 261.09 135.016C260.192 135.016 257.369 134.517 256.346 134.359C256.333 133.512 256.162 131.491 256.615 130.958C257.611 131.363 257.096 132.473 258.186 133.344C259.95 134.752 264.361 133.429 263.725 130.948C262.449 129.474 259.259 128.929 257.272 128.355C255.896 125.338 256.028 123.19 259.59 122.124Z"></path><path fill="#030303" d="M43.8958 145.306C46.1089 145.154 46.4815 145.295 48.4208 146.394C48.9592 147.595 49.4456 148.852 49.2648 150.184C47.6634 152.882 43.3416 148.364 42.1672 150.444C42.3633 152.484 43.2951 152.857 45.0495 153.209C46.034 152.565 46.5332 152.046 47.7289 152.387L47.862 152.851C47.2121 154.252 46.3675 154.25 44.9586 154.615C44.4423 154.471 43.9312 154.309 43.4261 154.129C38.9734 152.52 39.6438 147.243 43.8958 145.306ZM46.942 149.447L47.6475 149.483C48.554 148.026 46.1606 146.537 44.6394 146.515C43.7194 147.03 43.5479 146.933 43.1071 147.774C43.7347 148.937 45.6695 149.14 46.942 149.447Z"></path><path fill="#030303" d="M26.8672 137.03C31.2063 136.744 34.1661 141.15 30.8679 143.563C28.4955 144.171 27.0252 140.217 24.9753 141.113C24.1972 142.252 24.5485 142.841 25.0884 143.97C27.1916 145.082 26.7653 144.264 28.9614 144.324C29.4649 144.815 29.3205 144.619 29.4382 145.407L28.999 145.897C27.5907 146.364 25.9529 145.713 24.5844 145.26C21.1876 142.01 23.2188 138.607 26.8672 137.03ZM29.421 141.592L29.8916 141.77C30.5249 141.372 30.3347 141.577 30.5842 140.779C30.2814 139.14 29.5798 138.65 27.9803 138.319C27.275 138.541 26.6262 138.65 26.2408 139.277C26.6367 140.307 28.3373 140.997 29.421 141.592Z"></path><defs><linearGradient id="gradient_1" gradientUnits="userSpaceOnUse" x1="264.65213" y1="128.16003" x2="273.71973" y2="123.91972"><stop offset="0" stop-color="#030703"></stop><stop offset="1" stop-color="#191113"></stop></linearGradient></defs><path fill="url(#gradient_1)" d="M265.553 116.444C266.806 116.244 269.802 115.353 270.378 115.462C271.383 116.442 271.042 117.539 270.951 118.894C270.99 119.915 270.967 123.424 271.162 124.097L271.525 124.801C270.606 125.846 270.765 131.51 271.323 132.919C271.284 132.821 272.708 133.906 273.003 134.38L272.749 134.589C271.399 134.634 268.027 134.941 267.061 134.27C267.527 133.479 267.965 133.415 268.842 132.914C268.758 128.406 268.551 121.833 268.889 117.444C267.522 117.143 266.824 117.006 265.553 116.444Z"></path><path fill="#030303" d="M265.553 116.444C266.806 116.244 269.802 115.353 270.378 115.462C271.383 116.442 271.042 117.539 270.951 118.894C270.813 118.07 270.745 117.123 270.249 116.475C269.462 116.552 269.522 116.741 268.889 117.444C267.522 117.143 266.824 117.006 265.553 116.444Z"></path><path fill="#030303" d="M115.936 124.001C116.882 123.762 119.048 124.258 119.726 125.035C119.933 127.121 116.809 128.316 116.347 130.266C116.45 130.564 116.462 130.879 116.819 130.968C121.799 132.205 119.635 126.668 121.285 126.117L121.951 126.706C122.587 134.224 114.378 134.743 112.24 127.721C112.398 127.38 112.562 127.042 112.731 126.706C113.658 124.875 114.079 124.608 115.936 124.001ZM115.123 129.641C115.862 128.455 117.334 126.815 117.672 125.846L117.519 125.41C117.304 125.365 116.87 125.26 116.672 125.247C114.188 125.895 112.632 128.3 115.123 129.641Z"></path><path fill="#030303" d="M12.7883 124.51C14.5702 124.335 15.1409 124.783 16.7744 125.554C17.2584 126.374 17.6545 127.422 18.0247 128.311C17.5014 129.869 17.4131 130.992 15.8249 131.612C13.4186 131.452 12.8386 127.546 10.6836 127.774C10.0212 128.31 9.98644 128.981 9.82196 129.816C10.756 131.579 12.1305 131.654 14.0845 132.35L14.1151 132.95L13.7165 133.228C9.35164 133.665 4.30767 127.621 12.7883 124.51ZM15.8693 130.037C16.8446 126.838 15.884 125.683 12.5046 126.097C12.5373 127.048 15.0337 129.936 15.8693 130.037Z"></path><path fill="#030303" d="M397.93 115.295L398.512 115.229C398.897 115.443 398.95 115.492 399.021 115.935C399.159 116.797 398.895 117.899 398.88 118.797C398.855 120.372 398.706 132.385 399.083 132.92C399.332 133.274 400.434 133.281 400.846 133.852L400.692 134.206C400.343 134.296 396.474 134.277 395.604 134.34L395.158 134.421L394.811 134.119C395.05 133.352 395.308 133.406 396.133 132.916C396.897 131.367 396.757 120.098 396.628 117.673C395.978 116.815 395.898 117.451 394.533 116.84L394.59 116.461C395.388 115.889 396.928 115.565 397.93 115.295Z"></path><path fill="#030303" d="M405.13 115.307C405.457 115.203 405.901 115.233 406.256 115.232C406.366 115.346 406.495 115.478 406.643 115.63C406.528 117.696 406.48 121.511 406.466 123.407C406.473 126.399 406.544 129.391 406.676 132.381C407.19 133.103 407.707 133.098 408.67 133.426L408.408 133.781C407.238 134.146 405.398 134.035 404.123 134.023C403.309 133.997 402.99 134.127 402.398 133.706C404.213 132.365 404.4 131.906 404.333 129.732C404.215 125.849 404.467 121.868 404.14 118.009C404.08 117.302 402.835 116.69 402.275 116.427L402.272 116.214C403.107 115.63 404.122 115.512 405.13 115.307Z"></path><path fill="#232021" d="M162.884 117.495L163.82 117.908C163.145 119.613 163.174 121.573 163.073 123.428L163.163 124.783C162.89 126.128 163.243 131.73 163.191 133.546C164.678 133.846 165.861 134.069 167.311 134.556C167.019 134.604 166.726 134.647 166.433 134.683C165.166 134.841 160.245 135.221 159.34 134.517C159.657 133.848 160.238 133.798 161.067 133.448C160.894 130.74 161.26 128.161 160.907 125.382C160.406 124.827 160.435 124.995 159.487 124.872L159.33 124.522C162.28 122.288 160.001 121.536 162.884 117.495Z"></path><path fill="#030303" d="M274.11 122.032L277.042 122.115C278.384 122.907 279.121 123.351 279.481 125.009C279.991 127.354 279.764 130.761 279.739 133.227C280.579 133.619 281.202 133.73 281.649 134.404C281.033 134.732 278.62 134.443 277.294 134.663C277.573 130.125 279.001 120.886 271.525 124.801L271.162 124.097C271.885 123.569 273.389 122.413 274.11 122.032Z"></path><path fill="#030303" d="M247.743 124.5C246.941 124.305 246.289 124.081 245.515 123.818L245.505 123.511C245.603 123.461 245.702 123.414 245.802 123.369C246.437 123.084 249.398 122.239 249.918 122.44C249.971 123.311 249.976 123.901 250.357 124.713L250.533 125.454C250.457 125.61 250.39 125.769 250.331 125.932C249.842 127.243 249.657 131.6 250.322 132.975C250.837 134.039 251.746 134.147 252.86 134.514L252.885 134.811C251.999 135.223 249.606 134.608 248.366 134.708C246.937 134.824 245.737 135.043 244.336 135.297C245.269 134.574 246.683 133.905 247.761 133.352C247.853 130.642 247.921 127.147 247.743 124.5Z"></path><path fill="#030303" d="M109.663 130.509C110.48 130.418 111.747 130.77 112.058 131.58C110.559 132.571 107.688 131.398 107.64 134.458C108.769 135.831 111.896 132.777 113.875 133.106C117.703 133.743 115.086 138.145 112.535 139.386C111.025 139.549 110.35 139.622 109.401 138.376C109.696 136.901 113.875 139.44 114.275 135.27C112.896 133.998 107.621 138.287 106.384 135.302C105.32 132.735 107.699 131.406 109.663 130.509Z"></path><path fill="#030303" d="M82.571 141.904C83.5242 143.182 80.697 148.869 79.9112 150.271C80.3473 151.54 81.6831 154.898 80.2781 155.62C78.8021 154.814 78.9386 152.171 78.1821 150.773C77.996 150.429 76.4028 149.017 76.0128 148.667C75.013 147.852 72.6913 146.23 72.6163 144.925L73.0177 144.752C75.2277 145.247 77.3395 147.434 78.7367 149.147C79.9518 146.433 80.3708 143.86 82.571 141.904Z"></path><path fill="#232021" d="M441.813 123.921C440.542 126.019 440.545 127.86 441.342 130.208C442.95 134.947 447.441 132.015 448.543 132.501C448.421 132.941 448.309 133.377 447.909 133.618C443.33 136.381 437.838 133.107 438.268 127.727C438.446 125.498 439.23 124.429 440.727 123.145L441.813 123.921Z"></path><path fill="#232021" d="M374.062 131.773C377.719 134.501 376.992 132.269 380.564 133.049L380.706 133.376C379.985 134.694 376.505 134.522 375.177 134.469C369.896 134.258 368.778 126.316 372.442 123.583L373.536 124.429C372.214 126.707 373.008 129.574 374.062 131.773Z"></path><path fill="#030303" d="M97.2913 138.905C97.7143 138.897 98.4388 138.909 98.7279 139.203C99.9356 140.433 102.817 144.753 103.083 146.298C102.532 147.245 102.029 146.499 101.709 146.741C97.3358 150.048 97.0292 150.166 93.878 145.301C93.497 144.621 92.5079 143.039 92.4829 142.364L93.0094 141.92C95.3426 142.177 97.0682 150.729 100.123 146.345C101.174 144.837 98.0207 141.076 97.2913 138.905Z"></path><path fill="#030303" d="M286.237 122.002L286.585 122.062C287.539 123.065 286.772 129.888 286.954 131.673C287.136 133.457 287.31 132.713 288.773 134.13L288.725 134.625L288.372 134.805C286.134 134.049 284.985 134.727 282.638 134.787C283.075 133.846 283.93 133.555 284.825 133.051C284.814 130.122 284.836 127.193 284.893 124.265L281.314 123.759C283.012 123.128 284.553 122.846 286.237 122.002Z"></path><path fill="#232021" d="M241.431 23.3397C242.508 22.9137 243.733 23.1187 244.612 23.8724C245.492 24.6261 245.883 25.8047 245.627 26.9346C245.371 28.0645 244.511 28.9602 243.393 29.2616C242.326 29.5493 241.186 29.2516 240.396 28.4789C239.639 27.7389 239.308 26.6658 239.517 25.6281C239.726 24.5903 240.446 23.729 241.431 23.3397Z"></path><path fill="#232021" d="M236.391 122.656C236.798 122.668 237.978 122.664 238.291 122.791C237.337 123.314 236.876 123.536 236.068 124.279C235.748 125.077 235.204 126.177 235.256 126.994C235.355 127.088 235.627 127.365 235.725 127.418C235.564 127.873 235.36 128.168 235.48 128.547C234.929 129.923 236.039 131.843 236.989 132.852C236.694 133.505 236.809 134.207 236.856 134.927C232.041 133.053 231.346 127.878 234.511 123.924C234.737 123.642 236.009 122.889 236.391 122.656Z"></path><path fill="#030303" d="M33.7844 140.745C34.5169 140.746 34.6676 140.735 35.2835 141.111C36.1398 142.5 35.0869 146.694 34.7733 148.562C35.8287 147.353 39.6473 143.318 41.132 143.72C41.5327 144.37 41.5066 144.114 41.3784 144.781L40.8723 145.023C39.4934 146.185 35.3607 150.497 33.7865 150.002C32.9189 148.474 34.2468 143.49 33.8032 140.851L33.7844 140.745Z"></path><path fill="#232021" d="M192.593 133.933C189.971 130.877 189.792 127.374 192.229 124.117L193.776 124.402C193.551 125.23 193.016 126.426 193.268 127.095L193.809 127.448L193.521 128.349L193.953 128.622L193.362 128.859C193.037 130.114 193.768 131.379 194.439 132.447L194.894 134.876C193.956 134.626 193.454 134.355 192.593 133.933Z"></path><path fill="#030303" d="M117.332 112.317C119.051 113.071 118.541 113.148 118.381 114.762C119.743 117.054 119.536 114.586 120.897 114.313L121.261 114.627L121.099 115.713C122.152 117.908 127.688 117.6 128.477 120.508C126.519 120.611 121.785 117.795 120.255 117.904C120.008 118.297 119.754 118.686 119.493 119.069L118.958 119.071C118.181 118.358 118.982 118.047 118.79 117.47C118.443 116.431 117.116 115.955 116.621 115.078C116.468 114.096 116.942 113.247 117.332 112.317Z"></path><path fill="#030303" d="M128.371 3.30549C129.691 3.88777 129.581 4.56901 129.488 5.85916C129.38 7.35777 130.149 10.3859 128.741 11.3222C127.223 10.7664 128.751 8.5042 128.111 7.16643C126.999 7.71719 126.89 9.77865 126.548 10.9673C123.617 12.1055 123.849 6.84695 124.384 6.27384L124.819 6.39229C125.359 7.16424 124.958 8.16386 125.316 9.38163L125.696 9.36329C126.548 8.11389 127.231 5.19587 128.371 3.30549Z"></path><path fill="#030303" d="M323.536 129.09C324.4 129.809 324.278 129.946 325.266 129.989C326.639 128.928 326.485 127.597 326.139 126.04C324.885 125.045 323.907 125.978 323.287 125.135C324.023 123.71 330.463 124.021 331.823 124.422L332.19 124.754C332.126 125.072 332.161 125.252 331.882 125.445C330.955 126.083 329.358 125.325 328.449 125.675C328.361 125.708 326.929 130.311 326.009 131.354C324.423 130.005 324.26 131.026 323.536 129.09Z"></path><path fill="#030303" d="M23.5223 128.212C23.9849 128.471 23.9648 128.685 24.2522 129.258C23.9689 130.481 17.1254 136.324 15.6773 137.638C15.0886 137.377 14.7773 136.927 14.6452 136.337C16.7136 134.133 21.1571 130.245 23.5223 128.212Z"></path><path fill="#030303" d="M104.056 134.901C104.528 134.991 104.571 135.039 104.891 135.402C104.889 136.309 104.698 136.164 104.16 136.881C102.357 139.284 108.231 142.642 106.99 144.291L106.477 144.347C105.399 143.735 101.57 139.005 100.921 137.826C101.072 137.449 103.389 135.569 104.056 134.901Z"></path><path fill="#030303" d="M114.893 117.849C116.053 118.183 124.47 122.991 125.792 123.829L125.858 124.26L125.129 124.917C123.631 124.379 114.993 119.864 114.002 118.812L114.062 118.352L114.893 117.849Z"></path><path fill="#232021" d="M401.655 77.1257C402.971 76.7801 404.316 77.5738 404.65 78.8927C404.984 80.2117 404.178 81.5497 402.856 81.8715C401.551 82.1893 400.234 81.3959 399.904 80.0937C399.575 78.7914 400.356 77.4669 401.655 77.1257Z"></path><path fill="#030303" d="M192.229 124.117C195.462 121.535 197.259 121.637 200.81 123.532C201.291 124.579 202.454 126.915 201.843 128.037C201.19 127.688 200.328 127.845 199.224 127.489L199.55 127.009C199.808 123.448 196.57 121.962 193.776 124.402L192.229 124.117Z"></path><path fill="#232021" d="M62.7188 148.966C63.3121 148.363 64.4744 147.926 65.2967 147.966C68.5543 148.127 68.4633 154.594 67.816 156.636C67.3067 157.089 67.5342 156.973 66.8366 157.043C65.3429 155.732 67.4527 151.907 65.8707 149.916C65.3146 149.61 64.7029 149.434 64.0603 149.569C63.4888 149.03 63.5757 149.179 62.7188 148.966Z"></path><path fill="#030303" d="M236.391 122.656C239.002 121.805 239.994 122 242.418 123.239C242.544 123.303 242.668 123.37 242.79 123.44C243.369 124.708 244.224 126.198 243.869 127.561C242.998 128.62 242.41 128.487 241.099 128.551L241.142 127.446C242.237 126.721 241.398 124.919 240.668 124.222C239.885 123.474 239.269 123.22 238.291 122.791C237.978 122.664 236.798 122.668 236.391 122.656Z"></path><path fill="#030303" d="M64.0603 149.569C60.3147 151.079 62.8269 155.612 61.5106 157.18L60.9151 157.086C60.0734 155.713 60.2661 149.546 60.9187 148.052C61.7177 147.963 61.6626 148.644 62.7188 148.966C63.5757 149.179 63.4888 149.03 64.0603 149.569Z"></path><path fill="#030303" d="M25.024 133.573L25.2382 133.775C25.0446 135.156 19.9634 140.426 18.506 141.001C18.2494 140.611 18.2281 140.446 18.1213 140.009C18.2209 139.791 18.3399 139.545 18.5099 139.307C19.9863 137.234 21.7889 135.377 23.7731 133.79C24.2917 133.7 24.7087 133.628 25.024 133.573Z"></path><path fill="#030303" d="M345.248 133.087C345.704 133.034 352.152 132.853 351.887 133.108C353.148 131.892 354.144 129.932 355.486 128.698C353.395 136.035 354.661 134.209 347.236 134.185C347.039 134.016 345.71 133.374 345.248 133.087Z"></path><path fill="#030303" d="M57.3417 147.306C57.8207 147.513 57.6481 147.394 57.9906 147.886C57.9114 149.744 57.4618 155.643 56.3689 156.996L55.6914 156.304C55.2568 154.831 56.13 148.233 57.3417 147.306Z"></path><path fill="#030303" d="M372.442 123.583C374.899 122.097 376.413 121.267 379.31 121.975C379.789 122.093 380.265 122.218 380.74 122.351C380.631 123.337 380.59 124.744 380.036 125.506C378.489 124.892 377.49 120.731 373.536 124.429L372.442 123.583Z"></path><path fill="#030303" d="M440.727 123.145C444.123 121.371 445.133 121.072 448.888 122.198C448.684 123.234 448.549 124.677 447.764 125.287C446.536 124.342 446.253 122.565 444.404 122.797C443.487 122.912 442.497 123.288 441.813 123.921L440.727 123.145Z"></path><path fill="#030303" d="M121.966 3.61738C122.759 3.69077 123.037 3.67129 123.658 4.14526C124.346 5.22246 122.959 8.20445 122.989 10.7946C122.981 11.0097 122.898 11.1264 122.8 11.3172L122.725 11.1076L122.912 11.3398L122.488 11.4535C121.913 10.7874 122.051 5.05867 121.966 3.61738Z"></path><path fill="#030303" d="M250.357 124.713C251.187 123.464 252.458 121.719 254.119 122.366C255.131 123.489 254.872 124.61 255.005 126.161C254.204 125.563 253.279 124.824 252.418 124.348L250.533 125.454L250.357 124.713Z"></path><path fill="#030303" d="M236.989 132.852C241.487 134.626 241.754 132.437 243.525 133.136C242.707 134.875 238.578 135.178 236.856 134.927C236.809 134.207 236.694 133.505 236.989 132.852Z"></path><path fill="#030303" d="M194.439 132.447C196.714 134.06 198.437 133.454 201.235 133.156C200.765 135.049 196.513 135.136 194.894 134.876L194.439 132.447Z"></path><path fill="#030303" d="M347.185 124.268C348.199 124.279 349.842 124.42 350.666 123.966C351.094 123.378 351.514 122.775 352.002 122.237C351.98 123.654 352.231 126.823 351.972 127.844L351.637 128.165C350.617 127.223 352.339 125.605 349.378 125.464C348.981 124.293 348.228 124.416 347.185 124.268Z"></path><path fill="#343035" d="M193.809 127.448C195.455 127.449 197.627 127.394 199.224 127.489C200.328 127.845 201.19 127.688 201.843 128.037C199.755 128.641 196.099 128.92 193.953 128.622L193.521 128.349L193.809 127.448Z"></path><path fill="#030303" d="M117.457 5.34781C117.032 5.02065 115.8 4.95583 115.204 4.88485L114.96 4.56429C115.869 3.61986 119.841 3.56042 120.968 4.19171L120.946 4.55624C120.377 4.99221 119.207 4.98678 118.443 5.05245L117.457 5.34781Z"></path><path fill="#030303" d="M285.603 116.169C286.015 116.259 286.338 116.466 286.711 116.667C287.214 117.477 287.141 117.142 287.116 118.055C286.758 118.859 286.602 118.95 285.809 119.346C284.882 119.026 284.509 118.863 284.105 117.998C284.243 117.171 284.95 116.721 285.603 116.169Z"></path><path fill="#343035" d="M235.725 127.418C237.53 127.468 239.336 127.478 241.142 127.446L241.099 128.551C239.233 128.785 237.345 128.784 235.48 128.547C235.36 128.168 235.564 127.873 235.725 127.418Z"></path><path fill="#343035" d="M117.457 5.34781L118.443 5.05245C118.52 6.5502 118.899 9.69269 117.931 10.8166C117.012 10.1213 117.339 6.43607 117.457 5.34781Z"></path><path fill="#030303" d="M162.884 117.495C164.284 116.346 165.316 115.237 167.182 116.231L167.514 116.732C166.988 118.432 165.324 117.034 163.82 117.908L162.884 117.495Z"></path><path fill="#030303" d="M455.198 132.95C458.36 133.31 458.962 132.334 461.83 131.792C459.825 133.331 459.183 133.673 456.812 134.53L455.304 133.573L455.198 132.95Z"></path><path fill="#030303" d="M163.073 123.428C164.227 123.373 165.55 123.188 166.554 123.692L166.792 124.071C166.011 124.979 164.265 124.842 163.163 124.783L163.073 123.428Z"></path><path fill="#030303" d="M26.4932 130.83C27.1406 131.113 26.9365 130.93 27.2932 131.5C27.2005 132.257 26.5244 132.718 25.9413 133.245C25.7335 133.228 25.5553 133.107 25.3561 133.007L25.2241 132.469C25.5237 131.594 25.8024 131.413 26.4932 130.83Z"></path></svg>